<svg width="888" height="146" viewBox="0 0 888 146" fill="none" xmlns="http://www.w3.org/2000/svg">
<path d="M582.18 1.35862C589.018 6.01442 593.762 13.4075 598.555 20.0461C603.66 27.0486 608.847 33.9797 614.117 40.8586C619.855 48.3538 625.513 55.9009 631.074 63.5285C634.431 68.1198 637.862 72.6479 641.334 77.1516C641.796 77.7505 642.257 78.3494 642.732 78.9664C643.86 80.4308 644.989 81.8947 646.117 83.3586C646.126 82.0477 646.126 82.0477 646.135 80.7103C646.193 72.4565 646.265 64.203 646.353 55.9496C646.398 51.7068 646.437 47.4641 646.464 43.2212C646.49 39.1231 646.53 35.0255 646.58 30.9277C646.597 29.3677 646.609 27.8077 646.615 26.2476C646.625 24.055 646.653 21.8633 646.685 19.6709C646.696 18.4251 646.707 17.1793 646.718 15.8958C647.31 10.6442 648.699 6.70568 652.617 2.98362C656.953 0.165368 661.063 -0.168888 666.117 0.358618C670.817 2.0759 673.327 4.22468 676.117 8.35862C677.091 11.2792 677.247 13.1561 677.258 16.1967C677.263 17.1934 677.269 18.1902 677.275 19.2171C677.277 20.8559 677.277 20.8559 677.278 22.5278C677.286 24.255 677.286 24.255 677.293 26.0171C677.308 29.8354 677.315 33.6536 677.32 37.4719C677.325 39.4519 677.329 41.4318 677.333 43.4118C677.345 48.9295 677.353 54.4473 677.356 59.965C677.361 67.0953 677.378 74.2254 677.407 81.3556C677.429 86.8708 677.439 92.3859 677.44 97.9012C677.441 101.193 677.449 104.485 677.465 107.778C677.482 111.452 677.48 115.127 677.474 118.801C677.483 119.888 677.492 120.974 677.502 122.094C677.464 128.891 676.696 133.377 672.117 138.671C669.026 141.279 666.219 141.557 662.305 141.671C661.058 141.727 661.058 141.727 659.785 141.784C652.592 140.636 648.703 134.748 644.617 129.296C644.011 128.502 643.405 127.709 642.781 126.891C637.956 120.546 633.229 114.127 628.521 107.694C622.706 99.7575 616.734 91.9438 610.758 84.1282C607.208 79.4845 603.695 74.8146 600.207 70.1242C598.321 67.6278 596.409 65.1545 594.487 62.6858C593.856 61.8754 593.225 61.0651 592.575 60.2301C592.094 59.6125 591.613 58.9949 591.117 58.3586C591.114 59.2724 591.11 60.1861 591.106 61.1276C591.068 69.7496 591.011 78.3712 590.933 86.993C590.894 91.4252 590.862 95.8573 590.846 100.29C590.831 104.569 590.797 108.848 590.749 113.128C590.734 114.758 590.726 116.389 590.725 118.02C590.723 120.309 590.696 122.596 590.663 124.884C590.654 126.186 590.645 127.487 590.636 128.828C589.906 133.794 587.73 136.892 584.055 140.234C579.43 142.005 575.001 142.004 570.117 141.359C565.529 139.146 563.402 136.841 561.117 132.359C560.74 129.836 560.74 129.836 560.736 127.121C560.728 126.087 560.719 125.052 560.711 123.986C560.717 122.862 560.723 121.738 560.729 120.579C560.724 119.387 560.719 118.195 560.713 116.966C560.702 113.704 560.705 110.441 560.714 107.179C560.722 103.761 560.715 100.342 560.71 96.9242C560.705 91.1843 560.712 85.4446 560.726 79.7048C560.742 73.074 560.737 66.4435 560.721 59.8127C560.707 54.114 560.705 48.4154 560.713 42.7168C560.718 39.3156 560.718 35.9147 560.708 32.5135C560.701 28.7215 560.712 24.9299 560.729 21.1379C560.723 20.0136 560.717 18.8893 560.711 17.7309C560.719 16.6963 560.728 15.6617 560.736 14.5958C560.737 13.6999 560.739 12.8039 560.74 11.8808C561.207 8.75722 562.274 6.9078 564.117 4.35862C570.169 -0.0315695 574.868 -1.02873 582.18 1.35862Z" fill="#F07E1A"/>
<path d="M162.09 1.07736C166.647 3.47677 169.066 6.17537 170.668 11.0256C171.317 14.3964 171.355 17.7652 171.434 21.1867C171.454 21.9357 171.475 22.6847 171.497 23.4565C171.562 25.8404 171.621 28.2245 171.68 30.6086C171.723 32.2284 171.767 33.8482 171.811 35.468C171.917 39.4314 172.019 43.395 172.117 47.3586C172.67 46.7993 173.223 46.24 173.792 45.6637C179.007 40.3884 184.229 35.1204 189.46 29.8604C192.149 27.1561 194.834 24.449 197.514 21.7356C200.101 19.116 202.695 16.5038 205.295 13.8966C206.284 12.9016 207.271 11.9041 208.255 10.9039C209.636 9.50111 211.027 8.10859 212.419 6.71652C213.207 5.92154 213.995 5.12656 214.808 4.3075C218.971 0.794774 222.894 -0.0508156 228.195 0.108612C232.193 0.628598 234.477 2.80502 237.43 5.35861C239.979 9.89039 240.297 14.309 239.117 19.3586C235.364 26.1274 230.369 31.5155 224.875 36.8938C224.107 37.6579 223.338 38.422 222.547 39.2093C220.119 41.6205 217.681 44.0209 215.242 46.4211C213.583 48.0656 211.924 49.7108 210.266 51.3567C206.224 55.3654 202.174 59.3654 198.117 63.3586C199.392 66.8722 200.863 69.628 203.137 72.5891C204.042 73.7799 204.042 73.7799 204.966 74.9948C205.614 75.8368 206.262 76.6787 206.93 77.5461C208.296 79.3433 209.66 81.1415 211.023 82.9406C211.711 83.8464 212.398 84.7521 213.105 85.6853C217.189 91.1123 221.143 96.6319 225.09 102.159C227.052 104.903 229.056 107.604 231.113 110.277C239.445 121.21 239.445 121.21 239.422 127.402C238.576 132.834 236.448 137.123 231.984 140.476C228.185 142.272 224.168 142.221 220.117 141.359C213.767 138.545 210.76 134.784 206.93 129.109C205.793 127.48 204.655 125.852 203.516 124.226C202.948 123.408 202.381 122.591 201.796 121.748C199.293 118.185 196.682 114.706 194.055 111.234C193.077 109.94 192.099 108.645 191.121 107.351C190.39 106.384 190.39 106.384 189.645 105.397C188.005 103.209 186.386 101.008 184.77 98.8039C184.221 98.0603 183.673 97.3167 183.108 96.5505C182.05 95.1151 180.997 93.6761 179.949 92.2331C178.72 90.5718 177.424 88.9595 176.117 87.3586C175.457 87.3586 174.797 87.3586 174.117 87.3586C171.106 90.3695 171.819 93.7664 171.809 97.8039C171.783 99.5383 171.758 101.273 171.732 103.007C171.704 105.739 171.68 108.471 171.661 111.202C171.639 113.841 171.6 116.478 171.559 119.116C171.558 119.922 171.558 120.727 171.558 121.557C171.462 127.111 170.433 131.288 168.117 136.359C163.359 140.885 160.124 141.714 153.727 141.64C149.582 141.193 147.449 139.874 144.117 137.359C141.608 133.866 140.741 131.447 140.73 127.166C140.72 126.141 140.71 125.117 140.699 124.061C140.704 122.947 140.708 121.834 140.713 120.687C140.706 119.506 140.699 118.325 140.692 117.108C140.677 113.877 140.676 110.645 140.681 107.414C140.684 104.713 140.678 102.011 140.672 99.3102C140.658 92.9357 140.66 86.5614 140.671 80.187C140.683 73.6186 140.669 67.0507 140.642 60.4824C140.62 54.8355 140.613 49.1887 140.619 43.5418C140.622 40.1725 140.62 36.8034 140.603 33.4341C140.588 29.6756 140.598 25.9181 140.615 22.1596C140.606 21.0483 140.596 19.9369 140.586 18.7919C140.645 12.6625 141.004 9.0169 145.117 4.35861C149.935 0.125056 155.996 -1.14286 162.09 1.07736Z" fill="#67AAC8"/>
<path d="M761.117 41.3586C761.82 41.6254 762.522 41.8923 763.246 42.1672C773.986 46.8962 781.109 55.7234 785.336 66.4524C788.579 75.8103 791.169 86.0904 787.992 95.7961C785.711 98.9141 783.7 100.94 780.117 102.359C775.689 102.912 771.3 102.824 766.844 102.749C764.925 102.741 764.925 102.741 762.968 102.732C759.585 102.714 756.202 102.678 752.819 102.633C749.36 102.592 745.901 102.574 742.441 102.554C735.666 102.51 728.892 102.443 722.117 102.359C724.653 106.306 726.4 109.012 730.617 111.171C731.37 111.569 732.123 111.968 732.898 112.378C738.621 114.907 744.703 115.396 750.715 113.57C754.362 112.128 757.772 110.556 761.18 108.609C765.229 106.885 768.777 106.772 773.117 107.359C777.258 109.107 779.784 111.526 782.117 115.359C783.421 119.882 783.621 123.19 781.742 127.546C772.784 137.144 759.862 141.782 746.949 142.546C730.311 142.858 716.368 138.103 704.219 126.554C694.68 116.515 690.715 104.133 690.805 90.5461C690.81 89.6639 690.815 88.7817 690.82 87.8728C690.937 81.3173 691.628 75.477 694.117 69.3586C694.446 68.5246 694.775 67.6906 695.113 66.8313C700.044 55.758 708.813 46.9159 719.953 42.1438C733.125 37.1821 747.81 36.2437 761.117 41.3586ZM722.117 74.3586C722.117 75.0186 722.117 75.6786 722.117 76.3586C734.327 76.3586 746.537 76.3586 759.117 76.3586C754.387 69.1752 754.387 69.1752 747.117 65.3586C736.529 64.4017 729.142 66.017 722.117 74.3586Z" fill="#F07E1A"/>
<path d="M320.645 50.218C329.107 57.5443 335.163 68.3708 337.117 79.3586C337.41 83.426 337.421 87.4812 337.418 91.5578C337.422 92.7111 337.427 93.8643 337.431 95.0524C337.437 97.4788 337.437 99.9052 337.433 102.332C337.43 106.045 337.453 109.757 337.479 113.47C337.481 115.833 337.481 118.195 337.48 120.558C337.49 121.666 337.499 122.775 337.508 123.917C337.502 124.952 337.496 125.986 337.49 127.053C337.49 127.959 337.491 128.865 337.491 129.799C336.856 134.148 334.788 136.738 331.617 139.671C326.729 142.028 322.455 142.166 317.117 141.359C313.968 140.047 311.681 138.487 310.117 135.359C307.62 136.351 305.13 137.353 302.652 138.394C301.836 138.733 301.02 139.072 300.18 139.421C299.366 139.763 298.553 140.104 297.715 140.456C287.028 144.169 274.613 143.198 264.117 139.359C251.187 133.079 241.832 123.473 236.895 109.847C231.839 93.6655 233.323 77.3901 241.117 62.3586C248.802 50.272 260.643 42.372 274.438 38.7492C291.77 36.2226 306.533 39.8362 320.645 50.218ZM271.117 71.3586C265.605 76.9985 263.019 82.5135 262.742 90.3586C263.014 97.7472 265.339 103.405 270.402 108.816C276.089 113.932 281.646 115.028 289.215 114.741C294.937 113.987 299.099 111.79 302.93 107.484C308.004 100.235 309.978 93.5772 308.75 84.7063C306.85 77.0963 302.698 71.7205 296.18 67.4211C286.794 64.165 278.945 65.096 271.117 71.3586Z" fill="#67AAC8"/>
<path d="M94.1172 2.35862C96.9263 3.63551 98.6183 4.66962 100.43 7.17112C101.362 10.1384 101.49 12.2555 101.117 15.3586C98.0789 20.6534 94.0555 24.6814 89.7266 28.9446C89.0219 29.6463 88.3173 30.3481 87.5914 31.0712C85.3547 33.2968 83.1111 35.5153 80.8672 37.7336C79.3433 39.2475 77.8198 40.7618 76.2969 42.2766C72.5756 45.9759 68.8486 49.6695 65.1172 53.3586C66.0729 54.488 67.0306 55.6157 67.9893 56.7427C68.5224 57.3708 69.0555 57.999 69.6048 58.6462C71.7214 61.0427 74.0922 62.9404 76.6016 64.9016C79.12 67.3227 79.9993 69.7101 80.6172 73.1086C79.3889 81.0926 71.7108 87.0205 66.1172 92.3586C67.5962 97.8098 71.3561 100.962 75.2773 104.777C75.9824 105.475 76.6875 106.173 77.4139 106.893C79.6622 109.118 81.9204 111.332 84.1797 113.546C86.4408 115.772 88.6998 118 90.9562 120.231C92.3597 121.618 93.7664 123.001 95.1763 124.381C95.8104 125.006 96.4446 125.63 97.0979 126.273C97.6581 126.822 98.2183 127.371 98.7955 127.937C101.445 130.787 101.463 133.506 101.387 137.32C100.935 140.733 99.7428 142.192 97.1172 144.359C93.4468 145.592 90.5156 146.039 86.9678 144.312C82.9928 141.588 79.7851 138.272 76.4102 134.847C75.3221 133.755 75.3221 133.755 74.212 132.64C71.9048 130.322 69.6047 127.997 67.3047 125.671C65.7381 124.094 64.171 122.518 62.6035 120.943C58.7694 117.087 54.9411 113.225 51.1172 109.359C50.0134 110.296 48.9107 111.236 47.8086 112.176C47.1944 112.698 46.5803 113.221 45.9475 113.76C43.2229 116.14 40.6624 118.665 38.1172 121.234C37.5974 121.755 37.0776 122.277 36.542 122.815C33.143 126.252 29.9155 129.794 26.7773 133.472C17.3951 144.135 17.3951 144.135 11.3047 144.734C7.69518 144.707 7.19031 144.418 4.17969 141.984C2.06871 139.297 1.23408 138.06 0.679688 134.734C1.78539 126.204 10.6962 119.566 16.5547 113.859C26.5617 104.237 26.5617 104.237 35.1172 93.3586C34.202 92.4666 33.2867 91.5746 32.3438 90.6555C31.143 89.4735 29.9425 88.2912 28.7422 87.1086C28.1389 86.5221 27.5356 85.9356 26.9141 85.3313C26.334 84.7576 25.7539 84.184 25.1562 83.593C24.6221 83.0693 24.0879 82.5456 23.5376 82.0061C20.7975 78.828 20.1253 76.8185 20.0508 72.5774C20.893 67.2286 24.3206 64.3744 28.1797 60.8586C28.8429 60.227 29.5061 59.5953 30.1895 58.9446C31.8173 57.3987 33.4619 55.875 35.1172 54.3586C31.1858 49.6394 27.0824 45.2058 22.6953 40.9094C21.4934 39.7201 20.2915 38.5306 19.0898 37.341C17.2198 35.4959 15.3482 33.6525 13.4741 31.8115C11.6476 30.0152 9.82739 28.2127 8.00781 26.4094C7.44637 25.8614 6.88492 25.3134 6.30646 24.7488C0.256618 18.7382 0.256617 18.7382 0 14.3586C0.408915 10.9818 0.828494 8.79166 2.74219 5.92112C5.96848 3.79856 8.26277 3.42508 12.1172 3.35862C16.6035 5.21611 19.6537 7.52752 23.0508 10.9641C23.9473 11.8658 24.8439 12.7675 25.7676 13.6965C27.1472 15.1071 27.1472 15.1071 28.5547 16.5461C29.4706 17.4672 30.3864 18.3882 31.3301 19.3371C35.923 23.9828 40.3858 28.6741 44.5667 33.6958C46.266 35.5182 48.1117 36.8874 50.1172 38.3586C50.5343 37.9371 50.9513 37.5156 51.381 37.0813C55.7226 32.6955 60.0711 28.3168 64.4238 23.9421C66.0474 22.3085 67.6691 20.6731 69.2891 19.0359C71.6177 16.683 73.9527 14.3366 76.2891 11.9914C77.0121 11.258 77.7352 10.5247 78.4802 9.76905C79.1606 9.0885 79.841 8.40794 80.542 7.70676C81.1371 7.1072 81.7322 6.50763 82.3454 5.8899C86.1052 2.64049 89.1659 1.85339 94.1172 2.35862ZM49.1172 68.3586C47.7972 69.6786 46.4772 70.9986 45.1172 72.3586C46.5105 75.7258 48.0961 77.3446 51.1172 79.3586C52.4372 77.7086 53.7572 76.0586 55.1172 74.3586C54.0684 71.7367 53.4679 70.5649 50.9922 69.1086C50.3734 68.8611 49.7547 68.6136 49.1172 68.3586Z" fill="#67A9C7"/>
<path d="M816.117 39.3586C821.119 42.1203 824.374 45.6376 827.93 49.9836C828.972 51.2293 830.015 52.474 831.059 53.718C831.571 54.3309 832.082 54.9439 832.61 55.5754C836.008 59.5953 839.57 63.4707 843.117 67.3586C849.361 60.671 855.404 53.9427 861.047 46.7336C863.695 43.6953 866.497 41.1687 870.117 39.3586C876.58 38.9348 879.852 39.5595 884.867 43.8586C887.408 46.9078 887.322 50.3118 887.543 54.1281C886.387 60.1839 880.844 65.1562 876.867 69.6711C876.01 70.658 876.01 70.658 875.136 71.6647C871.322 76.0452 867.404 80.3043 863.313 84.4289C861.901 86.3235 861.901 86.3235 862.141 88.7805C863.394 92.0883 865.16 93.9427 867.617 96.4836C872.728 101.902 877.461 107.543 882.117 113.359C883.204 114.693 883.204 114.693 884.313 116.054C887.42 120.023 887.64 123.424 887.117 128.359C885.342 132.47 882.98 135.092 879.117 137.359C874.456 138.212 871.286 138.03 867.133 135.644C864.153 133.386 861.784 131.088 859.305 128.296C858.453 127.337 857.601 126.378 856.723 125.39C853.386 121.507 850.136 117.565 846.93 113.573C845.156 111.331 845.156 111.331 843.117 109.359C837.288 115.562 831.524 121.74 826.242 128.421C819.426 136.801 819.426 136.801 813.961 137.722C808.567 138.037 805.277 137.011 801.117 133.359C798.389 128.853 798.049 124.473 799.117 119.359C801.319 115.586 804.135 112.534 807.117 109.359C808.619 107.693 810.119 106.027 811.617 104.359C812.358 103.546 813.1 102.734 813.863 101.898C817.452 97.8546 820.791 93.6185 824.117 89.3586C822.67 84.6618 819.907 81.681 816.555 78.2336C798.645 59.3489 798.645 59.3489 798.867 49.8C799.314 45.4381 800.988 43.3221 804.242 40.5461C808.195 38.9134 811.911 38.4815 816.117 39.3586Z" fill="#C81A1A"/>
<path d="M529.805 38.0461C530.665 38.0171 531.526 37.9881 532.412 37.9582C539.267 37.8911 545.344 39.2483 550.745 43.7004C554.097 47.2929 555.117 50.5176 555.117 55.3586C553.529 60.5654 551.868 63.6534 547.117 66.3586C541.934 66.8616 536.742 66.447 531.551 66.2024C524.535 66.0007 519.154 66.5715 513.117 70.3586C509.488 74.1009 508.994 77.6546 509.007 82.7287C509.007 83.8271 509.006 84.9254 509.005 86.057C509.007 87.2445 509.01 88.432 509.012 89.6555C508.998 92.1659 508.983 94.6763 508.967 97.1867C508.944 101.148 508.93 105.108 508.942 109.07C508.951 112.891 508.922 116.71 508.887 120.53C508.899 121.71 508.911 122.889 508.924 124.104C508.829 130.546 508.309 134.503 503.696 139.181C499.292 142.467 493.324 141.887 488.117 141.359C483.031 138.997 481.2 136.473 479.117 131.359C478.838 128.576 478.706 126.023 478.729 123.245C478.724 122.454 478.719 121.663 478.713 120.848C478.7 118.247 478.709 115.647 478.719 113.046C478.717 111.231 478.714 109.415 478.71 107.6C478.706 103.8 478.712 100.001 478.726 96.2014C478.743 91.3391 478.733 86.4772 478.715 81.6149C478.705 77.8677 478.708 74.1205 478.716 70.3732C478.718 68.5807 478.715 66.7882 478.708 64.9957C478.701 62.4875 478.712 59.98 478.729 57.4719C478.723 56.7361 478.717 56.0004 478.711 55.2423C478.768 50.5456 479.655 47.3537 482.117 43.3586C485.864 39.7074 488.984 39.0487 494.055 38.8586C498.056 38.9572 500.55 39.2665 503.805 41.6086C506.86 43.6984 506.86 43.6984 509.398 42.7688C510.959 42.0568 512.498 41.2932 514.004 40.4719C519.015 37.8319 524.27 38.1069 529.805 38.0461Z" fill="#67AAC8"/>
<path d="M400.055 37.9211C400.931 37.9279 401.806 37.9348 402.709 37.9418C410.595 38.1378 417.001 39.1664 422.68 44.9836C425.429 49.5252 425.764 53.0885 425.117 58.3586C423.046 62.427 421.369 64.7213 417.117 66.3586C414.619 66.5222 414.619 66.5222 411.828 66.4133C410.803 66.3888 409.778 66.3643 408.723 66.3391C406.592 66.2695 404.462 66.1916 402.332 66.1047C395.423 65.9581 389.024 66.4342 383.117 70.3586C380.505 73.9977 379.742 76.518 379.732 80.9716C379.722 82.0731 379.712 83.1745 379.702 84.3093C379.705 85.4896 379.708 86.6699 379.711 87.8859C379.7 89.1076 379.689 90.3293 379.678 91.588C379.644 95.4907 379.628 99.3932 379.617 103.296C379.603 108.43 379.569 113.564 379.523 118.698C379.526 119.877 379.529 121.055 379.533 122.269C379.438 132.558 379.438 132.558 376.117 137.359C372.426 140.865 369.505 141.643 364.555 141.796C359.206 141.593 356.398 140.314 352.367 136.859C349.347 133.235 349.962 128.742 349.956 124.295C349.951 123.473 349.946 122.652 349.941 121.805C349.926 119.086 349.92 116.367 349.914 113.648C349.908 111.758 349.903 109.869 349.897 107.979C349.886 104.017 349.88 100.054 349.877 96.091C349.871 91.0145 349.847 85.9382 349.819 80.8617C349.8 76.9583 349.795 73.055 349.794 69.1516C349.791 67.2801 349.783 65.4087 349.769 63.5372C349.752 60.9184 349.754 58.3002 349.761 55.6814C349.751 54.9092 349.742 54.1371 349.733 53.3416C349.768 48.8273 350.334 45.9505 353.117 42.3586C356.903 39.3962 359.863 38.9267 364.617 38.9211C365.721 38.9018 366.824 38.8824 367.961 38.8625C371.717 39.4529 373.384 40.7836 376.117 43.3586C377.076 42.9564 377.076 42.9564 378.055 42.5461C379.571 41.9583 379.571 41.9583 381.117 41.3586C381.75 41.1088 382.383 40.8591 383.036 40.6018C388.801 38.4849 393.934 37.8476 400.055 37.9211Z" fill="#67AAC8"/>
<path d="M63.1172 53.3586C64.7588 54.7608 66.3995 56.1643 68.0352 57.5735C69.4464 58.7834 70.866 59.9837 72.293 61.175C72.9981 61.7719 73.7032 62.3687 74.4297 62.9836C75.0858 63.5328 75.742 64.0819 76.418 64.6477C78.9923 67.2398 79.9682 69.5391 80.6172 73.1086C79.3889 81.0926 71.7108 87.0205 66.1172 92.3586C67.5962 97.8098 71.3561 100.962 75.2773 104.777C75.9824 105.475 76.6875 106.173 77.4139 106.893C79.6622 109.118 81.9204 111.332 84.1797 113.546C86.4408 115.772 88.6998 118 90.9562 120.231C92.3597 121.618 93.7664 123.001 95.1763 124.381C95.8104 125.006 96.4446 125.63 97.0979 126.273C97.6581 126.822 98.2183 127.371 98.7955 127.937C101.445 130.786 101.463 133.506 101.387 137.32C100.935 140.733 99.7428 142.192 97.1172 144.359C93.4468 145.592 90.5156 146.039 86.9678 144.312C82.9928 141.588 79.7851 138.272 76.4102 134.847C75.6848 134.119 74.9594 133.39 74.212 132.64C71.9048 130.322 69.6047 127.997 67.3047 125.671C65.7381 124.094 64.171 122.518 62.6035 120.943C58.7694 117.087 54.9411 113.225 51.1172 109.359C50.0134 110.296 48.9107 111.236 47.8086 112.176C47.1944 112.698 46.5803 113.221 45.9475 113.76C43.2229 116.14 40.6624 118.665 38.1172 121.234C37.5974 121.755 37.0776 122.277 36.542 122.815C33.143 126.252 29.9155 129.794 26.7773 133.472C17.3951 144.135 17.3951 144.135 11.3047 144.734C7.69518 144.707 7.19031 144.418 4.17969 141.984C2.06871 139.297 1.23408 138.06 0.679688 134.734C1.78539 126.204 10.6962 119.566 16.5547 113.859C21.7649 108.759 26.8135 103.641 31.5598 98.1052C33.6977 95.7075 36.0555 93.6352 38.4922 91.5461C43.9281 86.6816 49.1376 81.5098 53.1172 75.3586C53.551 71.4806 53.551 71.4806 51.6172 69.6086C51.1222 69.1961 50.6272 68.7836 50.1172 68.3586C51.7273 64.2849 54.6554 61.5935 57.7422 58.6086C58.2578 58.102 58.7734 57.5954 59.3047 57.0735C60.571 55.8306 61.8435 54.594 63.1172 53.3586Z" fill="#EF7E1A"/>
<path d="M452.117 39.3586C456.873 41.4445 458.577 43.629 460.509 48.3904C461.529 51.6918 461.534 54.9828 461.505 58.4018C461.511 59.1735 461.516 59.9452 461.521 60.7402C461.534 63.2708 461.526 65.8007 461.516 68.3313C461.518 70.1005 461.521 71.8698 461.524 73.639C461.529 77.3384 461.522 81.0375 461.508 84.7368C461.491 89.4702 461.501 94.2031 461.519 98.9364C461.53 102.587 461.526 106.237 461.519 109.887C461.517 111.632 461.519 113.377 461.526 115.123C461.534 117.564 461.522 120.004 461.505 122.445C461.514 123.518 461.514 123.518 461.524 124.613C461.465 129.255 460.553 132.413 458.117 136.359C453.191 140.804 450.166 141.709 443.66 141.644C439.015 141.123 436.296 138.7 433.305 135.296C430.826 131.252 430.957 127.383 430.94 122.801C430.934 122.033 430.927 121.266 430.92 120.474C430.901 117.932 430.889 115.389 430.879 112.847C430.875 111.977 430.871 111.107 430.867 110.211C430.846 105.605 430.831 100.998 430.822 96.3921C430.811 91.6453 430.777 86.899 430.737 82.1524C430.711 78.4934 430.702 74.8345 430.699 71.1754C430.694 69.4264 430.682 67.6774 430.664 65.9284C430.639 63.4729 430.64 61.0186 430.647 58.563C430.634 57.8484 430.622 57.1338 430.608 56.3976C430.663 51.0257 432.154 46.8527 435.117 42.3586C440.167 38.1709 445.868 38.6135 452.117 39.3586Z" fill="#67AAC8"/>
<path d="M825.117 88.3586C828.931 89.6299 829.954 91.3451 832.43 94.4836C833.219 95.4723 834.008 96.461 834.82 97.4797C835.578 98.4297 836.336 99.3798 837.117 100.359C839.096 102.711 841.104 105.035 843.117 107.359C841.077 110.99 838.831 113.941 835.992 116.984C832.641 120.624 829.497 124.351 826.43 128.234C819.411 136.804 819.411 136.804 813.961 137.722C808.567 138.037 805.277 137.011 801.117 133.359C798.389 128.853 798.049 124.473 799.117 119.359C801.319 115.586 804.136 112.534 807.117 109.359C808.598 107.714 810.077 106.068 811.555 104.421C812.295 103.61 813.035 102.799 813.797 101.964C817.724 97.5548 821.417 92.9593 825.117 88.3586Z" fill="#EF7D1A"/>
<path d="M878.117 39.3586C881.325 40.8558 883.847 42.6338 886.117 45.3586C887.341 49.0305 887.843 52.5556 887.117 56.3586C884.286 61.236 880.653 65.3444 876.93 69.5461C871.521 75.7123 866.259 81.9674 861.117 88.3586C858.115 87.0349 856.267 85.6869 854.172 83.1711C853.393 82.2469 853.393 82.2469 852.598 81.3039C852.068 80.662 851.538 80.02 850.992 79.3586C849.928 78.0873 848.863 76.8165 847.797 75.5461C847.33 74.9828 846.863 74.4195 846.382 73.8391C845.349 72.6297 844.242 71.4835 843.117 70.3586C843.328 66.2992 845.925 64.1171 848.617 61.2961C852.995 56.6238 857.055 51.8088 861.012 46.7688C866.123 40.9178 870.308 38.5026 878.117 39.3586Z" fill="#EF7D1A"/>
<path d="M63.1172 93.3586C66.1838 94.6988 67.9392 96.0527 70.0312 98.6477C73.33 102.545 76.8329 106.162 80.4531 109.757C81.306 110.605 81.306 110.605 82.1761 111.47C83.9462 113.227 85.7188 114.98 87.4922 116.734C89.857 119.072 92.2185 121.413 94.5781 123.757C95.1197 124.29 95.6613 124.824 96.2193 125.373C99.7025 128.833 101.021 130.189 101.43 135.171C101.368 138.236 101.063 139.466 99.6172 142.296C96.7198 144.686 94.8568 145.145 91.2148 145.609C84.9018 144.856 80.405 138.902 76.1914 134.628C75.4438 133.878 74.6962 133.127 73.926 132.354C71.5475 129.964 69.176 127.568 66.8047 125.171C65.1899 123.546 63.5747 121.922 61.959 120.298C58.0064 116.323 54.0596 112.343 50.1172 108.359C51.073 107.243 52.0289 106.127 52.9849 105.011C53.5172 104.389 54.0495 103.768 54.5979 103.128C56.3839 101.048 58.1845 98.9818 59.9922 96.9211C60.5877 96.2418 61.1833 95.5624 61.7969 94.8625C62.2326 94.3662 62.6683 93.8699 63.1172 93.3586Z" fill="#67A9C7"/>
<path d="M15.1172 4.3586C20.9758 8.65925 26.0662 14.1529 31.1797 19.2961C32.1823 20.2929 32.1823 20.2929 33.2051 21.3098C39.2415 27.3579 44.7794 33.6864 50.1172 40.3586C45.8272 44.6486 41.5372 48.9386 37.1172 53.3586C33.846 51.723 32.3033 50.7962 29.8491 48.3493C29.2352 47.7417 28.6213 47.1342 27.9889 46.5082C27.3377 45.8529 26.6865 45.1977 26.0156 44.5227C25.338 43.8469 24.6603 43.1711 23.9621 42.4749C22.5325 41.0467 21.1054 39.6159 19.6807 38.1828C17.5002 35.9917 15.3094 33.8114 13.1172 31.632C11.7285 30.2421 10.3405 28.8514 8.95312 27.4602C8.29791 26.809 7.64269 26.1578 6.96762 25.4869C6.36004 24.873 5.75246 24.2592 5.12646 23.6267C4.59226 23.0909 4.05805 22.5551 3.50766 22.003C1.51066 19.6413 0.182633 17.4755 0 14.3586C0.429321 10.8132 0.768236 8.81223 2.99219 5.9211C7.16912 2.84982 10.2268 3.07587 15.1172 4.3586Z" fill="#C71A1A"/>
<path d="M452.742 3.5461C457.587 6.1481 461.025 9.23349 463.117 14.3586C463.791 19.4776 463.916 24.6305 461.492 29.2961C457.681 34.2101 454.311 36.4123 448.18 37.2961C441.995 37.6769 437.99 35.9818 433.305 31.9211C429.159 27.0647 428.67 23.4061 428.805 17.1164C429.289 12.843 430.47 10.7719 433.117 7.3586C439.491 2.41539 444.932 0.987518 452.742 3.5461Z" fill="#67AAC8"/>
<path d="M63.1172 53.3586C67.2534 56.7396 70.9304 60.0245 74.1172 64.3586C73.0653 63.9874 73.0653 63.9874 71.9922 63.6086C67.8455 63.248 66.333 64.7991 63.1172 67.3586C61.0423 69.3012 59.0815 71.3007 57.1172 73.3586C54.2328 72.0656 52.245 70.6992 50.1172 68.3586C51.7273 64.2849 54.6554 61.5935 57.7422 58.6086C58.2578 58.102 58.7734 57.5954 59.3047 57.0735C60.571 55.8306 61.8435 54.594 63.1172 53.3586Z" fill="#C61F1E"/>
</svg>
